<svg width="128" height="128" viewBox="0 0 128 128" fill="none" xmlns="http://www.w3.org/2000/svg">
<path fill-rule="evenodd" clip-rule="evenodd" d="M100.541 77C95.3754 91.8008 81.2929 102.419 64.7303 102.419C43.788 102.419 26.8109 85.4424 26.8109 64.5C26.8109 43.5576 43.788 26.5805 64.7303 26.5805C80.9175 26.5805 94.7357 36.7232 100.176 51H116.352C110.373 28.0754 89.5276 11.1556 64.7303 11.1556C35.2691 11.1556 11.386 35.0387 11.386 64.5C11.386 93.9613 35.2691 117.844 64.7303 117.844C89.8868 117.844 110.976 100.431 116.602 77H100.541Z" fill="black"/>
<rect width="18.4627" height="18.4627" transform="matrix(0.707107 0.707107 0.707107 -0.707107 51.0326 63.8573)" fill="black"/>
</svg>
